<svg id="Layer_2" data-name="Layer 2" xmlns="http://www.w3.org/2000/svg" width="4930.95" height="3722.88" viewBox="0 0 4930.95 3722.88">
  <path fill="black" d="M892.81,2500.57v0L464.45,2072.2l0,0h0L36.05,2500.57l0,0h0L464.44,2929l0,0h0l428.36-428.37Zm-428.3,0h-.05v0h0v0h-.06v0h.06v-.06h0v.06h.05Z" transform="translate(-36.05 -639.97)"/>
  <path fill="black" d="M4967,2500.57v0l-428.47-428.44,0,0h0L4110,2500.57l0,0h0l428.46,428.44,0,0h0L4967,2500.6Z" transform="translate(-36.05 -639.97)"/>
  <path fill="black" d="M3753.45,2500.54l0,0L2499.14,1246.18l-.07.07,0,0L1244.71,2500.55l.07.08,0,0L2499.08,3755l.07-.07,0,0L3753.52,2500.62Zm-1254.13.09h-.17v.16h-.08v-.16h-.16v-.09h.16v-.16h.08v.16h.17Z" transform="translate(-36.05 -639.97)"/>
  <polygon fill="black" points="2289.04 429.49 2288.41 430.12 1862.39 856.14 1460.8 1257.73 1032.77 1685.75 1032.66 1685.64 603.28 1256.27 1032.66 826.89 1429.43 430.12 1859.55 0 2289.04 429.49"/>
  <polygon fill="black" points="4325.53 2463.91 4324.9 2464.54 3898.88 2890.57 3497.28 3292.16 3069.26 3720.18 3069.15 3720.07 2639.77 3290.69 3069.15 2861.31 3465.92 2464.54 3896.04 2034.42 4325.53 2463.91"/>
  <polygon fill="black" points="2288.57 3293.48 1860.64 3721.41 1859.17 3722.88 1429.89 3293.59 1033.21 2896.91 603.18 2466.88 1032.58 2037.48 2288.57 3293.48"/>
  <polygon fill="black" points="4325.53 1257.3 3897.5 1685.32 3896.04 1686.79 3466.66 1257.41 3069.89 860.64 2639.77 430.52 3069.26 1.03 4325.53 1257.3"/>
</svg>